# xmcd
#
# Track frame offsets: 
#        150
#        19153
#        37531
#        54729
#        72101
#        88927
#        100647
#        119973
#        136148
#        150564
#        166427
#
# Disc length: 2481 seconds
#
# Revision: 0
# Processed by: cddbd v1.5.2PL0 Copyright (c) Steve Scherf et al.
# Submitted via: ExactAudioCopy v1.0b6
#
DISCID=8b09af0b
DTITLE=Honey Ryder - Born In A Bottle
DYEAR=2014
DGENRE=Country
TTITLE0=Born In A Bottle
TTITLE1=What If We've Only Got Tonight
TTITLE2=Drink With Me
TTITLE3=Little Feet
TTITLE4=Damn It I'm In Love Again
TTITLE5=If I Ain't Got You
TTITLE6=Mirage
TTITLE7=In A Heartbeat
TTITLE8=Years From Now
TTITLE9=Hitting The High Note
TTITLE10=Take It Away
EXTD=
EXTT0=
EXTT1=
EXTT2=
EXTT3=
EXTT4=
EXTT5=
EXTT6=
EXTT7=
EXTT8=
EXTT9=
EXTT10=
PLAYORDER=
